# File created by Blade
# Date/Time:  Tue Jan 27 20:02:37 2015
# Frame Rate: 120.000 fps
#------------------------------------------------------
:FULLY-SPECIFIED
:DEGREES
2507
root 7.804159 32.490173 5.760997 -1.006097 -23.992931 -14.719393
Spine 7.457813 16.855463 10.587865
Head 17.353112 -7.277687 4.375553
LeftShoulder -16.227061 4.430362 27.888721
LeftArm -6.035808 -5.671220 -81.225388
LeftForeArm -18.767914 -0.000000 123.382092
LeftHand 10.119120 -0.000000 -22.816046
LeftHandThumb1 -26.253704 0.000000 33.147579
RightShoulder -17.551211 -19.566686 -22.088514
RightArm 6.977333 -14.080851 84.913690
RightForeArm -13.233389 -0.000000 5.891400
RightHand 19.424512 0.000000 8.361672
RightHandThumb1 -24.326973 -0.000000 -32.862282
LeftUpLeg 16.376785 16.058625 3.533010
LeftLeg -3.824593 -0.000000 0.000000
LeftFoot -23.637823 26.760792 -15.865051
LeftToeBase 17.974812 -0.000000 -0.000000
RightUpLeg -52.766713 -65.360197 1.619369
RightLeg 102.321977 -0.000000 -0.000000
RightFoot 29.799991 -24.814691 19.661441
RightToeBase 20.984782 -0.000000 -0.000000
2508
root 7.799680 32.486089 5.772144 -1.026847 -24.160636 -14.695193
Spine 7.486860 17.010927 10.569508
Head 17.476265 -7.240091 4.374077
LeftShoulder -16.254384 4.468115 27.871699
LeftArm -6.035733 -5.646495 -81.136664
LeftForeArm -18.847291 -0.000000 123.438352
LeftHand 10.142169 -0.000000 -22.838571
LeftHandThumb1 -26.253704 0.000000 33.147579
RightShoulder -17.513611 -19.513935 -22.086285
RightArm 6.910933 -14.072439 84.895009
RightForeArm -13.317259 -0.000000 5.869555
RightHand 19.497846 -0.000000 8.260370
RightHandThumb1 -24.326973 -0.000000 -32.862282
LeftUpLeg 16.467604 16.114946 3.508200
LeftLeg -3.866844 -0.000000 0.000000
LeftFoot -23.658184 26.867998 -15.835866
LeftToeBase 17.895182 -0.000000 -0.000000
RightUpLeg -55.003930 -66.128234 3.862450
RightLeg 102.105288 -0.000000 -0.000000
RightFoot 29.662816 -25.035564 19.886441
RightToeBase 20.293763 -0.000000 -0.000000
2509
root 7.793237 32.482280 5.778941 -1.034448 -24.296002 -14.706000
Spine 7.521112 17.122957 10.580627
Head 17.563662 -7.201445 4.400486
LeftShoulder -16.274756 4.490665 27.866174
LeftArm -6.051481 -5.629482 -81.062218
LeftForeArm -18.932008 -0.000000 123.489440
LeftHand 10.125914 -0.000000 -22.849224
LeftHandThumb1 -26.253704 0.000000 33.147579
RightShoulder -17.489197 -19.488090 -22.098764
RightArm 6.903701 -14.092647 84.880729
RightForeArm -13.291017 -0.000000 5.844633
RightHand 19.477007 0.000000 8.242210
RightHandThumb1 -24.326973 -0.000000 -32.862282
LeftUpLeg 16.524215 16.134861 3.507209
LeftLeg -3.894372 -0.000000 0.000000
LeftFoot -23.651155 26.903390 -15.895491
LeftToeBase 17.583054 -0.000000 -0.000000
RightUpLeg -57.354043 -66.871736 6.261006
RightLeg 101.866058 -0.000000 -0.000000
RightFoot 29.691611 -25.107087 19.962979
RightToeBase 20.618733 -0.000000 -0.000000
2510
root 7.791721 32.476975 5.787835 -1.054386 -24.408760 -14.661512
Spine 7.535530 17.225480 10.531710
Head 17.658102 -7.153526 4.414740
LeftShoulder -16.289320 4.511427 27.883164
LeftArm -6.060266 -5.606008 -81.018491
LeftForeArm -18.994476 -0.000000 123.522815
LeftHand 10.135832 -0.000000 -22.845909
LeftHandThumb1 -26.253704 0.000000 33.147579
RightShoulder -17.488512 -19.499283 -22.085075
RightArm 6.937968 -14.090643 84.847026
RightForeArm -13.300429 -0.000000 5.816532
RightHand 19.479977 -0.000000 8.303888
RightHandThumb1 -24.326973 -0.000000 -32.862282
LeftUpLeg 16.582461 16.158954 3.457042
LeftLeg -3.933156 -0.000000 0.000000
LeftFoot -23.702347 26.938160 -15.958565
LeftToeBase 17.727492 -0.000000 -0.000000
RightUpLeg -59.863659 -67.582812 8.726628
RightLeg 101.633948 -0.000000 -0.000000
RightFoot 29.524795 -25.317966 20.107967
RightToeBase 20.408344 -0.000000 -0.000000
